1.9Hzhigh3min_grf.mot
version=1
nRows=10
nColumns 19
inDegrees=yes
endheader
time	1_ground_force_vx	1_ground_force_vy	1_ground_force_vz	1_ground_force_px	1_ground_force_py	1_ground_force_pz	1_ground_torque_x	1_ground_torque_y	1_ground_torque_z	2_ground_force_vx	2_ground_force_vy	2_ground_force_vz	2_ground_force_px	2_ground_force_py	2_ground_force_pz	2_ground_torque_x	2_ground_torque_y	2_ground_torque_z
            2.502500	         -111.976136	         1441.824971	         -138.723629	           -0.208610	            0.006233	           -0.406494	           -0.898886	           11.574223	           -1.113601	         -101.446118	         1488.155333	          151.394123	           -0.219721	            0.005605	           -0.673622	            1.060570	          -15.557946	           -1.582753
            2.503000	         -111.011919	         1441.642427	         -138.130668	           -0.208669	            0.006233	           -0.406619	           -0.851951	           11.063754	           -1.060071	          -98.930183	         1491.853049	          149.857554	           -0.220216	            0.005602	           -0.673359	            1.047915	          -15.802409	           -1.587362
            2.503500	         -110.140401	         1442.002205	         -137.902007	           -0.208690	            0.006233	           -0.406550	           -0.816819	           10.694119	           -1.022703	          -97.076763	         1497.389347	          148.421705	           -0.220536	            0.005601	           -0.673337	            1.027707	          -15.852170	           -1.571272
            2.504000	         -108.993016	         1442.900985	         -137.304834	           -0.208678	            0.006233	           -0.406582	           -0.818158	           10.831163	           -1.030681	          -94.837602	         1499.978236	          147.679098	           -0.220904	            0.005598	           -0.673047	            1.012950	          -16.021110	           -1.577345
            2.504500	         -107.663373	         1443.081267	         -137.215656	           -0.208683	            0.006233	           -0.406659	           -0.848923	           11.378654	           -1.081941	          -93.220304	         1506.065167	          146.526873	           -0.221273	            0.005597	           -0.673101	            1.005286	          -16.241374	           -1.580143
            2.505000	         -106.059167	         1444.703876	         -137.212682	           -0.208619	            0.006233	           -0.406526	           -0.883423	           12.033704	           -1.142917	          -91.546111	         1509.389670	          145.552516	           -0.221680	            0.005595	           -0.672887	            0.998169	          -16.457569	           -1.587026
            2.505500	         -104.361788	         1445.062634	         -136.710927	           -0.208625	            0.006233	           -0.406580	           -0.888182	           12.298359	           -1.163493	          -90.066867	         1514.740870	          144.022298	           -0.221956	            0.005594	           -0.672814	            0.990728	          -16.662020	           -1.584233
            2.506000	         -102.985316	         1444.880759	         -136.256561	           -0.208700	            0.006233	           -0.406703	           -0.851886	           11.951932	           -1.127103	          -88.297933	         1517.699575	          142.342642	           -0.222330	            0.005591	           -0.672567	            0.976198	          -16.779268	           -1.573701
            2.506500	         -101.609461	         1444.880042	         -136.030699	           -0.208793	            0.006234	           -0.406746	           -0.810686	           11.527899	           -1.085314	          -86.297505	         1521.396601	          140.477802	           -0.222654	            0.005590	           -0.672409	            0.964944	          -17.011642	           -1.570766
            2.507000	         -100.188341	         1446.141631	         -135.937111	           -0.208870	            0.006233	           -0.406642	           -0.779987	           11.258515	           -1.058299	          -84.203996	         1525.277711	          138.707421	           -0.223028	            0.005588	           -0.672298	            0.950686	          -17.220800	           -1.566044
